<svg xmlns="http://www.w3.org/2000/svg" xmlns:xlink="http://www.w3.org/1999/xlink" width="233" height="187" viewBox="0 0 233 187">
    <defs>
        <path id="a" d="M126 9.108h5V141c-.409.712-1.233 1.069-2.473 1.069-1.24 0-2.082-.357-2.527-1.069V9.108z"/>
        <filter id="b" width="140%" height="101.5%" x="-20%" y="-.8%" filterUnits="objectBoundingBox">
            <feOffset dx="2" dy="1" in="SourceAlpha" result="shadowOffsetInner1"/>
            <feComposite in="shadowOffsetInner1" in2="SourceAlpha" k2="-1" k3="1" operator="arithmetic" result="shadowInnerInner1"/>
            <feColorMatrix in="shadowInnerInner1" values="0 0 0 0 0.666241497 0 0 0 0 0.666241497 0 0 0 0 0.666241497 0 0 0 1 0"/>
        </filter>
        <path id="c" d="M10 9h5v131.892c-.409.712-1.233 1.068-2.473 1.068-1.24 0-2.082-.356-2.527-1.068V9z"/>
        <filter id="d" width="140%" height="101.5%" x="-20%" y="-.8%" filterUnits="objectBoundingBox">
            <feOffset dx="2" dy="1" in="SourceAlpha" result="shadowOffsetInner1"/>
            <feComposite in="shadowOffsetInner1" in2="SourceAlpha" k2="-1" k3="1" operator="arithmetic" result="shadowInnerInner1"/>
            <feColorMatrix in="shadowInnerInner1" values="0 0 0 0 0.666241497 0 0 0 0 0.666241497 0 0 0 0 0.666241497 0 0 0 1 0"/>
        </filter>
        <path id="e" d="M151.622 179.168h50.618c5.74-5.482 6.091-7.728 1.052-6.738-5.04.99-9.136 1.801-12.29 2.435 11.127-4.314 16.068-7.56 14.822-9.738-1.247-2.177-7.994.163-20.242 7.02 9.216-6.18 12.74-10.602 10.572-13.263-2.168-2.662-7.395 1.76-15.68 13.263 6.278-10.06 6.688-15.567 1.231-16.523-5.457-.956-6.284 2.801-2.481 11.27-8.727-11.759-12.085-15.515-10.076-11.27 2.01 4.245 5.013 8.83 9.013 13.754-12.671-16.376-18.81-21.178-18.418-14.407.392 6.77 4.833 11.432 13.324 13.984-23.83-4.214-31.925-4.735-24.285-1.564 7.64 3.17 13.006 4.47 16.101 3.896-14.22 1.093-19.122 2.443-14.708 4.05 4.414 1.608 4.896 2.885 1.447 3.83z"/>
        <filter id="f" width="103.3%" height="107.4%" x="-1.6%" y="-3.7%" filterUnits="objectBoundingBox">
            <feOffset dx="-2" dy="1" in="SourceAlpha" result="shadowOffsetInner1"/>
            <feComposite in="shadowOffsetInner1" in2="SourceAlpha" k2="-1" k3="1" operator="arithmetic" result="shadowInnerInner1"/>
            <feColorMatrix in="shadowInnerInner1" values="0 0 0 0 0.902662628 0 0 0 0 0.902662628 0 0 0 0 0.902662628 0 0 0 1 0"/>
        </filter>
        <path id="g" d="M29.622 179.168H80.24c5.74-5.482 6.091-7.728 1.052-6.738-5.04.99-9.136 1.801-12.29 2.435 11.127-4.314 16.068-7.56 14.822-9.738-1.247-2.177-7.994.163-20.242 7.02 9.216-6.18 12.74-10.602 10.572-13.263-2.168-2.662-7.395 1.76-15.68 13.263 6.278-10.06 6.688-15.567 1.231-16.523-5.457-.956-6.284 2.801-2.481 11.27-8.727-11.759-12.085-15.515-10.076-11.27 2.01 4.245 5.013 8.83 9.013 13.754C43.49 153.002 37.35 148.2 37.743 154.97c.392 6.77 4.833 11.432 13.324 13.984-23.83-4.214-31.925-4.735-24.285-1.564 7.64 3.17 13.006 4.47 16.101 3.896-14.22 1.093-19.122 2.443-14.708 4.05 4.414 1.608 4.896 2.885 1.447 3.83z"/>
        <filter id="h" width="103.3%" height="107.4%" x="-1.6%" y="-3.7%" filterUnits="objectBoundingBox">
            <feOffset dx="-2" dy="1" in="SourceAlpha" result="shadowOffsetInner1"/>
            <feComposite in="shadowOffsetInner1" in2="SourceAlpha" k2="-1" k3="1" operator="arithmetic" result="shadowInnerInner1"/>
            <feColorMatrix in="shadowInnerInner1" values="0 0 0 0 0.902662628 0 0 0 0 0.902662628 0 0 0 0 0.902662628 0 0 0 1 0"/>
        </filter>
    </defs>
    <g fill="none" fill-rule="evenodd">
        <g fill="#F4F4F4">
            <path d="M95.501 11.634c0 .966.12 1.904.346 2.792.02.063.035.127.056.19a11.132 11.132 0 0 0 2.157 4.167v.008c.296.338.599.67.916.973l9.724.034 5.731.022a11.22 11.22 0 0 0 3.533-8.186c0-.091 0-.176-.007-.268C117.815 5.29 112.845.402 106.733.402c-5.112 0-9.427 3.42-10.781 8.095-.296.994-.45 2.051-.45 3.137"/>
            <path d="M108.437 19.646l5.732.02 12.804.05a9.23 9.23 0 0 0-2.291-5.344 9.25 9.25 0 0 0-6.981-3.159h-.007a9.273 9.273 0 0 0-6.606 2.757 9.258 9.258 0 0 0-2.651 5.676M79.636 19.532l18.508.071a8.7 8.7 0 0 0-.14-.966v-.007c-.022-.099-.043-.198-.071-.296a9.235 9.235 0 0 0-1.982-3.878 1.904 1.904 0 0 0-.16-.184 9.318 9.318 0 0 0-5.156-2.898 9.504 9.504 0 0 0-1.741-.161 9.274 9.274 0 0 0-7.615 3.962 9.252 9.252 0 0 0-1.643 4.357"/>
            <path d="M89.315 13.826a5.315 5.315 0 1 0 10.63 0 5.315 5.315 0 0 0-10.63 0"/>
            <path d="M54.871 19.438l24.297.091 18.508.071.775.008 9.723.034 5.732.021 12.804.05 21.885.084c-7.58-.19-23.21-4.216-23.675-5.168-.05-.098-.219-.19-.501-.261-1.072-.296-3.73-.422-7.248-.444-1.904-.021-4.062 0-6.346.042-3.363.064-7.016.177-10.576.303a675.785 675.785 0 0 0-4.872.19c-1.989.08-3.885.163-5.612.24-5.232.24-8.905.445-8.905.445-.014.007-.029.021-.05.028-3.99 2.355-14.622 3.384-25.939 4.266"/>
        </g>
        <g fill="#F4F4F4">
            <path d="M192.093 21.634c0 .966-.119 1.904-.345 2.792-.021.063-.035.127-.056.19a11.132 11.132 0 0 1-2.158 4.167v.008c-.295.338-.598.67-.916.973l-9.723.034-5.732.022a11.22 11.22 0 0 1-3.526-8.454c.142-6.077 5.112-10.964 11.225-10.964 5.112 0 9.427 3.42 10.78 8.095.297.994.451 2.051.451 3.137"/>
            <path d="M179.158 29.646l-5.732.02-12.804.05a9.23 9.23 0 0 1 2.291-5.344 9.25 9.25 0 0 1 6.98-3.159h.008a9.273 9.273 0 0 1 6.606 2.757 9.258 9.258 0 0 1 2.65 5.676M207.958 29.532l-18.508.071a8.7 8.7 0 0 1 .142-.966v-.007c.02-.099.041-.198.07-.296a9.235 9.235 0 0 1 1.981-3.878c.05-.064.106-.128.162-.184a9.318 9.318 0 0 1 5.155-2.898 9.504 9.504 0 0 1 1.741-.161 9.274 9.274 0 0 1 7.614 3.962 9.252 9.252 0 0 1 1.643 4.357"/>
            <path d="M198.28 23.826a5.315 5.315 0 1 1-10.63 0 5.315 5.315 0 0 1 10.63 0"/>
            <path d="M232.724 29.438l-24.297.091-18.508.071-.775.008-9.723.034-5.733.021-12.804.05-21.884.084c7.579-.19 23.21-4.216 23.675-5.168.05-.098.219-.19.5-.261 1.073-.296 3.73-.422 7.249-.444 1.904-.021 4.062 0 6.345.042 3.364.064 7.016.177 10.577.303a675.785 675.785 0 0 1 4.871.19 1018.599 1018.599 0 0 1 14.518.684c.014.008.028.022.05.029 3.99 2.355 14.622 3.384 25.939 4.266"/>
        </g>
        <g fill="#F4F4F4">
            <path d="M26.558 27.547c0 .627.078 1.235.225 1.81.013.042.022.083.036.124a7.221 7.221 0 0 0 1.4 2.704v.004c.191.22.388.435.594.632l6.308.022 3.717.014a7.278 7.278 0 0 0 2.292-5.31c0-.06 0-.114-.004-.174a7.284 7.284 0 1 0-14.275-1.862 7.128 7.128 0 0 0-.293 2.036"/>
            <path d="M34.95 32.744l3.718.014 8.306.032a5.987 5.987 0 0 0-1.486-3.467 6 6 0 0 0-4.529-2.05h-.004a6.015 6.015 0 0 0-4.285 1.79 6.006 6.006 0 0 0-1.72 3.681M16.267 32.67l12.006.046c-.018-.21-.05-.42-.091-.626v-.005c-.014-.064-.028-.128-.046-.192a5.99 5.99 0 0 0-1.39-2.635 6.044 6.044 0 0 0-3.344-1.88 6.165 6.165 0 0 0-1.13-.104 6.016 6.016 0 0 0-4.94 2.57 6.002 6.002 0 0 0-1.065 2.826"/>
            <path d="M22.546 28.969a3.448 3.448 0 1 0 6.895 0 3.448 3.448 0 0 0-6.895 0"/>
            <path d="M.202 32.61l15.761.058 12.006.046.503.005 6.307.023 3.719.014 8.306.032L61 32.842c-4.916-.123-15.056-2.735-15.358-3.352-.032-.064-.142-.124-.325-.17-.695-.191-2.42-.274-4.701-.288-1.236-.013-2.635 0-4.117.028-2.182.041-4.551.114-6.86.197-1.053.036-2.091.077-3.092.119a704.041 704.041 0 0 0-3.71.16c-3.393.155-5.776.288-5.776.288-.01.004-.019.014-.032.018-2.59 1.527-9.486 2.195-16.827 2.767"/>
        </g>
        <path fill="#F6F6F6" d="M42.008 174.198h153.15c-6.126-1.666-8.484-3.309-7.075-4.927 9.116-10.473 22.634-17.891 10.258-15.46a9408.532 9408.532 0 0 0-37.187 7.368c33.67-13.053 48.618-22.874 44.847-29.462-3.772-6.588-24.186.492-61.244 21.24 24.397-25.767 39.172-43.09 44.324-51.968 5.152-8.878-14.774 8.445-59.78 51.968 25.645-40.59 31.623-57.914 17.934-51.968-13.69 5.945-20.928 17.97-21.715 36.075 3.785-27.88.95-39.112-8.504-33.695-9.455 5.417-7.692 19.153 5.288 41.209-38.336-49.545-56.91-64.075-55.725-43.59 1.187 20.486 14.625 34.59 40.315 42.311-72.099-12.75-96.591-14.327-73.477-4.733 23.113 9.594 39.352 13.523 48.716 11.787-43.023 3.307-57.856 7.392-44.501 12.256 13.354 4.864 14.813 8.727 4.376 11.589z"/>
        <g stroke="#979797">
            <path fill="#DDE9FD" d="M115.818 132.76c8.33 0 7.541 1.22 7.541-12.766 0-.973.668-9.8.789-9.583.206.371 2.564-1.593 3.27-2.174.743-.612 14.661-5.918 13.954-7.635-.707-1.716-19.856 2.154-20.191 1.989-.963-.477-4.26 2.117-5.362 2.117-.72 0-4-2.584-4.666-2.395-.77.217-13.618-1.925-14.098-1.355-.495.588 7.867 5.869 7.606 6.914-.266 1.067 3.089.426 2.988 2.06-.151 2.46.473 6.057.473 10.062 0 13.986-.633 12.765 7.696 12.765z"/>
            <path fill="#DDD" d="M123.255 132.225c.472-.478.71-1.23.938-2.53l.163-.957-.992-.1-.109 3.587zm-1.327 43.825l-.015.485.5-.485h-.485zm-4.166 0h-.479l.5.479-.02-.479zm-4.057-.058l-.02.48.5-.48h-.48zm-4.255 0h-.488l.5.489-.012-.489zm5.986-42.467l.501.02.02-.5-.5-.02-.02.5z"/>
            <path d="M115.942 103.956l-.677 29.093"/>
            <path fill="#77BBFB" d="M112.221 102.303l6.765.204-3.62 2.496z"/>
            <path fill="#EEE" d="M115.584 103.653c2.41 0 3.755-2.737 3.755-6.075s-1.345-6.075-3.755-6.075-4.363 2.72-4.363 6.075 1.953 6.075 4.363 6.075z"/>
            <path fill="#D8D8D8" d="M118.918 99.603c.49-3.364-.272-5.045-2.284-5.045-3.017 0-4.218-2.597-4.66-1.124-.296.983-.403 2.92-.321 5.813-.975-1.031-1.523-1.955-1.645-2.771-.18-1.2-.326-2.568.494-4.463 2.486-5.742 9.606-2.773 10.099 1.082.328 2.57-.233 4.739-1.683 6.508z"/>
            <path fill="#888" d="M109.57 176.683v3c0 2.311-.982 3.21-.982 4.931 0 1.722 5.882 2.441 5.882-.179 0-.89-.863-2.512-1.02-4.753-.05-.7-.05-1.7 0-2.999h-3.88zM121.9 177v2.999c0 2.312.982 3.21.982 4.932 0 1.721-5.882 2.44-5.882-.18 0-.89.862-2.512 1.02-4.752.05-.7.05-1.7 0-2.999h3.88z"/>
        </g>
        <g stroke="#979797">
            <path fill="#DDE9FD" d="M139.596 102.71l-.037-.103c10.52-10.286 16.271-14.894 17.253-13.823.937 1.024-3.834 7.203-14.314 18.536-.167.669-.348 1.029-.543 1.08.186 2.778.004 6.561-.201 11.499-.582 13.979.677 12.962-7.662 12.962-8.34 0-7.655 1.048-7.655-12.962 0-3.04-.04-5.608-.04-7.765.001-.992-.341 18.153-1.16 18.477-.82.325-2.381-.38-2.381-5.972 0-5.59-.39-12.574 1.624-18.547 1.031-3.059 4.765-3.682 4.94-3.731.667-.189 3.95 2.4 4.672 2.4 1.103 0 4.405-2.6 5.369-2.122l.135.07z"/>
            <path fill="#DDD" d="M141.265 132.129c.472-.48.71-1.232.938-2.532l.163-.96-.992-.1-.109 3.592zm-1.33 43.905l-.014.485.5-.485h-.485zm-4.171 0h-.48l.5.478-.02-.478zm-3.299-.059l-.01.489.5-.489h-.49zm-4.667 0h-.48l.5.48-.02-.48zm-.67-43.843c.032-.14.062-.232.08-.264-.06.105-.25.207-.465.107.113.052.242.105.385.157zm6.318 1.256l.444.06.066-.496-.5-.011-.01.447z"/>
            <path d="M133.942 103.812l-.678 29.144"/>
            <path fill="#77BBFB" d="M130.216 102.156l6.774.204-3.625 2.5z"/>
            <path fill="#EEE" d="M134.585 103.508c2.412 0 3.76-2.741 3.76-6.085s-1.348-6.086-3.76-6.086c-2.413 0-4.369 2.725-4.369 6.086 0 3.36 1.956 6.085 4.369 6.085z"/>
            <path fill="#D8D8D8" d="M137.554 101.629c.736-4.821.097-7.232-1.917-7.232-1.555 0-2.992 1.16-3.728.844-.694-.298-.724-2.097-.94-1.38-.295.983-.295 3.573 0 7.768-1.19.222-1.845-.076-1.967-.894-.18-1.203-.822-5.905 0-7.803 2.489-5.752 10.112-3.861 10.606 0 .118.924.111 6.981 0 7.803-.133.976-.817 1.274-2.054.894z"/>
            <path fill="#888" d="M128.562 176.667c-.019.863-.361 1.998-1.026 3.405-.999 2.11-3.093 2.389-3.093 4.114 0 1.724 2.163 1.631 4.462-.29 1.533-1.282 2.701-1.906 3.505-1.873v-5.49l-3.848.134zM139.7 176.534c-.156 1.014.098 2.225.763 3.631.999 2.11 3.304 2.296 3.304 4.02 0 1.725-2.163 1.632-4.462-.29-1.533-1.28-2.658-1.951-3.375-2.012v-5.35h3.77z"/>
            <path fill="#EEE" d="M153.853 87.212v-2.656l1.503-1.243.396 2.373L158.127 83 161 86.736l-4.594 3.506-.245-.532c-.902-.386-1.468-.704-1.7-.954-.23-.25-.433-.765-.608-1.544z"/>
        </g>
        <g stroke="#979797">
            <path fill="#DDE9FD" d="M90.49 108.159c-.103-.18-.202-.46-.296-.839-10.48-11.333-15.251-17.512-14.314-18.536.978-1.067 6.69 3.504 17.14 13.712.127-.05.26-.096.4-.135.667-.189 3.95 2.4 4.672 2.4 1.103 0 4.405-2.6 5.369-2.122.076.038 3.446.465 4.212 3.187 1.895 6.739 1.723 20.068 1.66 20.873-.48 6.162-2.338 5.093-3.02 2.585-.683-2.508-.69-19.177-.696-18.724-.034 2.55-.178 5.733-.178 9.619 0 14.01.992 12.682-7.347 12.682-8.34 0-7.655 1.048-7.655-12.962 0-5.187-.118-9.004.054-11.74z"/>
            <path fill="#DDD" d="M105.164 132.224c.54-.473.794-1.238 1.039-2.627l.163-.96-.991-.113-.21 3.7zm-2.49 43.81l-.027.471.499-.471h-.472zm-3.406 0h-.484l.5.484-.016-.484zm-3.1-.059l-.015.485.5-.485h-.485zm-3.994 0h-.476l.499.476-.023-.476zm-1.041-43.841c.03-.143.06-.237.08-.27-.062.107-.253.211-.47.11.115.054.245.107.39.16zm6.31 1.253l.447.06.066-.495-.5-.015-.013.45z"/>
            <path d="M97.942 103.812l-.678 29.144"/>
            <path fill="#77BBFB" d="M94.952 102.483l6.856.131-3.443 2.247z"/>
            <path fill="#EEE" d="M98.585 103.508c2.412 0 3.76-2.741 3.76-6.085s-1.348-6.086-3.76-6.086c-2.413 0-4.369 2.725-4.369 6.086 0 3.36 1.956 6.085 4.369 6.085z"/>
            <path fill="#D8D8D8" d="M101.554 101.629c.334-6.128-.237-8.56-1.713-7.295-2.212 1.897-4.067-.617-4.51.859a176.36 176.36 0 0 1-1.085 3.457c-1.377-2.547-1.792-4.453-1.244-5.718 2.489-5.752 10.112-3.861 10.606 0 .118.924.545 2.619.433 3.44-.132.976-.961 2.729-2.487 5.257z"/>
            <path fill="#888" d="M92.216 176.667c-.065.83-.43 1.947-1.095 3.354-.998 2.11-3.678 2.44-3.678 4.165 0 1.724 2.163 1.631 4.462-.29 1.533-1.282 2.93-1.916 4.19-1.902v-5.327h-3.88zM102.612 176.534c-.098 1.014.186 2.225.851 3.631.999 2.11 3.304 2.296 3.304 4.02 0 1.725-2.163 1.632-4.462-.29-1.533-1.28-2.582-1.94-3.146-1.975v-5.386h3.453z"/>
            <path fill="#EEE" d="M78.147 87.212v-2.656l-1.503-1.243-.396 2.373L73.873 83 71 86.736l4.594 3.506.245-.532c.902-.386 1.468-.704 1.7-.954.23-.25.433-.765.608-1.544z"/>
        </g>
        <path fill="#EEE" stroke="#979797" d="M123.624 130.596l-.433 2.667 1.025 1.975 2.314-.216-1.018-4.223zM107.906 131l.433 2.667-1.025 1.976-1.506-.464.38-5.146zM140.331 101.276l-.83.669c-.42-.79-.63-1.244-.63-1.363 0-.12 1.342-1.413 4.024-3.88l2.829 2.353-4.17 4.25-1.223-2.029zM93.392 101.575l.83.668c.42-.789.63-1.243.63-1.362 0-.12-1.341-1.413-4.023-3.881L88 99.353l4.17 4.25 1.222-2.028z"/>
        <path fill="#9380EA" d="M45 62.954L56.017 72V61.913H45zM185.017 62.954L174 72V61.913h11.017z"/>
        <g transform="translate(45 35)">
            <use fill="#888" xlink:href="#a"/>
            <use fill="#000" filter="url(#b)" xlink:href="#a"/>
        </g>
        <g transform="translate(45 35)">
            <use fill="#888" xlink:href="#c"/>
            <use fill="#000" filter="url(#d)" xlink:href="#c"/>
        </g>
        <path fill="#A28FFD" d="M45 35.913h140v27H45v-27z"/>
        <text fill="#FFF" font-family="ProximaNova-Bold, Proxima Nova" font-size="16" font-weight="bold" transform="translate(45 35)">
            <tspan x="12" y="19">Selamat Datang</tspan>
        </text>
        <g>
            <use fill="#EEE" xlink:href="#e"/>
            <use fill="#000" filter="url(#f)" xlink:href="#e"/>
        </g>
        <g>
            <use fill="#EEE" xlink:href="#g"/>
            <use fill="#000" filter="url(#h)" xlink:href="#g"/>
        </g>
        <g fill="#4286F5">
            <path d="M19.74 49.617c-.58-.798-.422-1.901.351-2.463.774-.562 1.871-.37 2.451.427.302.416.402.913.322 1.374l.002-.001 9.537 2.849c-.143.268-.349.372-.624.371-3.62-.008-4.915.64-6.092 1.024-3.946 1.286-4.923-2.885-4.923-2.885l.001-.001a1.81 1.81 0 0 1-1.025-.695"/>
            <path d="M19.843 47.633c-.178.003-.237.414-.359.391-.192-.035-.36-.295-.398-.39-.065-.156.621-.962 1.094-1.053.472-.09 1.922-.084 1.922-.084-.128.094-1.799 1.13-2.259 1.136z"/>
            <path d="M21.981 46.542s-.153-.225-.383-.42c-.227-.194-.566-.29-1.211-.2-.644.09-.92.215-1.049.308-.128.093.017 1.235.017 1.235s.872.07 1.668-.07c.797-.14 1.05-.375 1.05-.375l-.092-.478zM24.898 53.843l.034-.475.127-.006.051.336s.072 0 .28-.148c.207-.148.401-.027.401-.027s-1.21.624-1.161 1.034c0 0 .003.183-.116-.03-.032-.058-.067-.136.008-.245.1-.146.198-.314.376-.439M20.212 48.967c.14.217.377.312.53.214.154-.099.165-.353.025-.57-.14-.216-.378-.312-.53-.213-.154.098-.165.353-.025.57"/>
            <path d="M20.364 48.96c.072.113.2.16.283.106.084-.054.094-.19.022-.303-.074-.113-.2-.16-.284-.107-.085.055-.094.19-.021.304M22.256 50.782s.774 1.734 2.19 1.879c1.414.145 4.186-1.985 4.186-1.985l-4.78-1.428M19.33 47.242s1.319-.032 1.544-.095c.225-.064.598-.14.598-.14s.109-.015.156.057c.075.117-.065.184-.065.184a2.687 2.687 0 0 1-.689.17l-1.52.047-.024-.223z"/>
            <path d="M20.544 47.176l.019.334.423-.046-.101-.348z"/>
            <path d="M20.83 47.397c.073.1.214.12.316.046a.225.225 0 0 0 .053-.314.225.225 0 0 0-.315-.045.217.217 0 0 0-.06.066.221.221 0 0 0 .007.247M19.51 48.667c-.044-.11-1.599.547-1.199.47.515-.097 1.51.03 1.75.505l-.55-.975zM22.742 48.397l6.696-6.114s.48 4.227-1.248 6.369c-1.73 2.145-4.43 1.765-4.43 1.765l-1.018-2.02z"/>
            <path d="M21.594 49.878l.473-8.784s1.662 1.76 2.04 3.283c.95 3.83-1.13 5.479-1.13 5.479l-1.383.022zM19.88 49.318l-.988.494.728-.53z"/>
        </g>
        <g fill="#4286F5">
            <path d="M208.403 74.617c.58-.798.422-1.901-.351-2.463-.774-.562-1.87-.37-2.45.427a1.804 1.804 0 0 0-.323 1.374l-.002-.001-9.537 2.849c.143.268.35.372.624.371 3.62-.008 4.915.64 6.092 1.024 3.946 1.286 4.923-2.885 4.923-2.885l-.001-.001a1.81 1.81 0 0 0 1.025-.695"/>
            <path d="M208.3 72.633c.178.003.238.414.36.391.19-.035.358-.295.397-.39.065-.156-.621-.962-1.094-1.053-.472-.09-1.922-.084-1.922-.084.128.094 1.799 1.13 2.259 1.136z"/>
            <path d="M206.162 71.542s.153-.225.383-.42c.227-.194.566-.29 1.211-.2.644.09.92.215 1.049.308.128.093-.017 1.235-.017 1.235s-.872.07-1.668-.07c-.797-.14-1.05-.375-1.05-.375l.092-.478zM203.245 78.843l-.034-.475-.127-.006-.051.336s-.072 0-.28-.148c-.207-.148-.4-.027-.4-.027s1.209.624 1.16 1.034c0 0-.003.183.116-.03.032-.058.067-.136-.008-.245-.1-.146-.198-.314-.376-.439M207.931 73.967c-.14.217-.377.312-.53.214-.154-.099-.165-.353-.025-.57.14-.216.378-.312.53-.213.154.098.165.353.025.57"/>
            <path d="M207.78 73.96c-.073.113-.2.16-.284.106-.084-.054-.094-.19-.022-.303.074-.113.2-.16.284-.107.085.055.094.19.022.304M205.887 75.782s-.774 1.734-2.19 1.879c-1.414.145-4.186-1.985-4.186-1.985l4.78-1.428M208.813 72.242s-1.319-.032-1.544-.095c-.225-.064-.598-.14-.598-.14s-.109-.015-.156.057c-.075.117.065.184.065.184.204.084.435.139.689.17l1.52.047.024-.223z"/>
            <path d="M207.6 72.176l-.02.334-.423-.046.101-.348z"/>
            <path d="M207.312 72.397a.225.225 0 0 1-.315.046.225.225 0 0 1-.053-.314c.072-.099.213-.12.315-.045.025.018.046.04.06.066a.221.221 0 0 1-.007.247M208.632 73.667c.045-.11 1.6.547 1.2.47-.515-.097-1.51.03-1.75.505l.55-.975zM205.401 73.397l-6.696-6.114s-.48 4.227 1.248 6.369c1.73 2.145 4.43 1.765 4.43 1.765l1.018-2.02z"/>
            <path d="M206.549 74.878l-.473-8.784s-1.661 1.76-2.04 3.283c-.95 3.83 1.13 5.479 1.13 5.479l1.383.022zM208.263 74.318l.988.494-.728-.53z"/>
        </g>
        <g fill="#4286F5">
            <path d="M165.74 31.617c-.58-.798-.422-1.901.351-2.463.774-.562 1.871-.37 2.451.427.302.416.402.913.322 1.374l.002-.001 9.537 2.849c-.143.268-.349.372-.624.371-3.62-.008-4.915.64-6.092 1.024-3.946 1.286-4.923-2.885-4.923-2.885l.001-.001a1.81 1.81 0 0 1-1.025-.695"/>
            <path d="M165.843 29.633c-.178.003-.237.414-.359.391-.192-.035-.36-.295-.398-.39-.065-.156.621-.962 1.094-1.053.472-.09 1.922-.084 1.922-.084-.128.094-1.799 1.13-2.259 1.136z"/>
            <path d="M167.981 28.542s-.153-.225-.383-.42c-.227-.194-.566-.29-1.211-.2-.644.09-.92.215-1.049.308-.128.093.017 1.235.017 1.235s.872.07 1.668-.07c.797-.14 1.05-.375 1.05-.375l-.092-.478zM170.898 35.843l.034-.475.127-.006.051.336s.072 0 .28-.148c.207-.148.401-.027.401-.027s-1.21.624-1.161 1.034c0 0 .003.183-.116-.03-.032-.058-.067-.136.008-.245.1-.146.198-.314.376-.439M166.212 30.967c.14.217.377.312.53.214.154-.099.165-.353.025-.57-.14-.216-.378-.312-.53-.213-.154.098-.165.353-.025.57"/>
            <path d="M166.364 30.96c.072.113.2.16.283.106.084-.054.094-.19.022-.303-.074-.113-.2-.16-.284-.107-.085.055-.094.19-.021.304M168.256 32.782s.774 1.734 2.19 1.879c1.414.145 4.186-1.985 4.186-1.985l-4.78-1.428M165.33 29.242s1.319-.032 1.544-.095c.225-.064.598-.14.598-.14s.109-.015.156.057c.075.117-.065.184-.065.184a2.687 2.687 0 0 1-.689.17l-1.52.047-.024-.223z"/>
            <path d="M166.544 29.176l.019.334.423-.046-.101-.348z"/>
            <path d="M166.83 29.397c.073.1.214.12.316.046a.225.225 0 0 0 .053-.314.225.225 0 0 0-.315-.045.217.217 0 0 0-.06.066.221.221 0 0 0 .007.247M165.51 30.667c-.044-.11-1.599.547-1.199.47.515-.097 1.51.03 1.75.505l-.55-.975zM168.742 30.397l6.696-6.114s.48 4.227-1.248 6.369c-1.73 2.145-4.43 1.765-4.43 1.765l-1.018-2.02z"/>
            <path d="M167.594 31.878l.473-8.784s1.662 1.76 2.04 3.283c.95 3.83-1.13 5.479-1.13 5.479l-1.383.022zM165.88 31.318l-.988.494.728-.53z"/>
        </g>
        <g fill="#4286F5">
            <path d="M86.403 13.617c.58-.798.422-1.901-.351-2.463-.774-.562-1.87-.37-2.45.427a1.804 1.804 0 0 0-.323 1.374l-.002-.001-9.537 2.849c.143.268.35.372.624.371 3.62-.008 4.915.64 6.092 1.024 3.946 1.286 4.923-2.885 4.923-2.885l-.001-.001a1.81 1.81 0 0 0 1.025-.695"/>
            <path d="M86.3 11.633c.178.003.238.414.36.391.19-.035.358-.295.397-.39.065-.156-.621-.962-1.094-1.053-.472-.09-1.922-.084-1.922-.084.128.094 1.799 1.13 2.259 1.136z"/>
            <path d="M84.162 10.542s.153-.225.383-.42c.227-.194.566-.29 1.211-.2.644.09.92.215 1.049.308.128.093-.017 1.235-.017 1.235s-.872.07-1.668-.07c-.797-.14-1.05-.375-1.05-.375l.092-.478zM81.245 17.843l-.034-.475-.127-.006-.051.336s-.072 0-.28-.148c-.207-.148-.4-.027-.4-.027s1.209.624 1.16 1.034c0 0-.003.183.116-.03.032-.058.067-.136-.008-.245-.1-.146-.198-.314-.376-.439M85.931 12.967c-.14.217-.377.312-.53.214-.154-.099-.165-.353-.025-.57.14-.216.378-.312.53-.213.154.098.165.353.025.57"/>
            <path d="M85.78 12.96c-.073.113-.2.16-.284.106-.084-.054-.094-.19-.022-.303.074-.113.2-.16.284-.107.085.055.094.19.022.304M83.887 14.782s-.774 1.734-2.19 1.879c-1.414.145-4.186-1.985-4.186-1.985l4.78-1.428M86.813 11.242s-1.319-.032-1.544-.095c-.225-.064-.598-.14-.598-.14s-.109-.015-.156.057c-.075.117.065.184.065.184.204.084.435.139.689.17l1.52.047.024-.223z"/>
            <path d="M85.6 11.176l-.02.334-.423-.046.101-.348z"/>
            <path d="M85.312 11.397a.225.225 0 0 1-.315.046.225.225 0 0 1-.053-.314c.072-.099.213-.12.315-.045.025.018.046.04.06.066a.221.221 0 0 1-.007.247M86.632 12.667c.045-.11 1.6.547 1.2.47-.515-.097-1.51.03-1.75.505l.55-.975zM83.401 12.397l-6.696-6.114s-.48 4.227 1.248 6.369c1.73 2.145 4.43 1.765 4.43 1.765l1.018-2.02z"/>
            <path d="M84.549 13.878l-.473-8.784s-1.661 1.76-2.04 3.283c-.95 3.83 1.13 5.479 1.13 5.479l1.383.022zM86.263 13.318l.988.494-.728-.53z"/>
        </g>
    </g>
</svg>
