<svg xmlns="http://www.w3.org/2000/svg" width="15" height="14" viewBox="0 0 15 14">
    <g fill="#4286F5" fill-rule="evenodd">
        <path d="M1.74 8.617c-.58-.798-.422-1.901.351-2.463.774-.562 1.871-.37 2.451.427.302.416.402.913.322 1.374l.002-.001 9.537 2.849c-.143.268-.349.372-.624.371-3.62-.008-4.915.64-6.092 1.024-3.946 1.286-4.923-2.885-4.923-2.885l.001-.001a1.81 1.81 0 0 1-1.025-.695"/>
        <path d="M1.843 6.633c-.178.003-.237.414-.359.391-.192-.035-.36-.295-.398-.39-.065-.156.621-.962 1.094-1.053.472-.09 1.922-.084 1.922-.084-.128.094-1.799 1.13-2.259 1.136z"/>
        <path d="M3.981 5.542s-.153-.225-.383-.42c-.227-.194-.566-.29-1.211-.2-.644.09-.92.215-1.049.308-.128.093.017 1.235.017 1.235s.872.07 1.668-.07c.797-.14 1.05-.375 1.05-.375l-.092-.478zM6.898 12.843l.034-.475.127-.006.051.336s.072 0 .28-.148c.207-.148.401-.027.401-.027s-1.21.624-1.161 1.034c0 0 .003.183-.116-.03-.032-.058-.067-.136.008-.245.1-.146.198-.314.376-.439M2.212 7.967c.14.217.377.312.53.214.154-.099.165-.353.025-.57-.14-.216-.378-.312-.53-.213-.154.098-.165.353-.025.57"/>
        <path d="M2.364 7.96c.072.113.2.16.283.106.084-.054.094-.19.022-.303-.074-.113-.2-.16-.284-.107-.085.055-.094.19-.021.304M4.256 9.782s.774 1.734 2.19 1.879c1.414.145 4.186-1.985 4.186-1.985l-4.78-1.428M1.33 6.242s1.319-.032 1.544-.095c.225-.064.598-.14.598-.14s.109-.015.156.057c.075.117-.065.184-.065.184a2.687 2.687 0 0 1-.689.17l-1.52.047-.024-.223z"/>
        <path d="M2.544 6.176l.019.334.423-.046-.101-.348z"/>
        <path d="M2.83 6.397c.073.1.214.12.316.046a.225.225 0 0 0 .053-.314.225.225 0 0 0-.315-.045.217.217 0 0 0-.06.066.221.221 0 0 0 .007.247M1.51 7.667c-.044-.11-1.599.547-1.199.47.515-.097 1.51.03 1.75.505l-.55-.975zM4.742 7.397l6.696-6.114s.48 4.227-1.248 6.369C8.46 9.797 5.76 9.417 5.76 9.417l-1.018-2.02z"/>
        <path d="M3.594 8.878L4.067.094s1.662 1.76 2.04 3.283c.95 3.83-1.13 5.479-1.13 5.479l-1.383.022zM1.88 8.318l-.988.494.728-.53z"/>
    </g>
</svg>
