<svg xmlns="http://www.w3.org/2000/svg" width="40" height="104" viewBox="0 0 40 104">
    <g fill="none" fill-rule="evenodd" stroke="#979797">
        <path fill="#DDE9FD" d="M17.596 20.71l-.037-.103C28.079 10.321 33.83 5.713 34.812 6.784c.937 1.024-3.834 7.203-14.314 18.536-.167.669-.348 1.029-.543 1.08.186 2.778.004 6.561-.201 11.499-.582 13.979.677 12.962-7.662 12.962-8.34 0-7.655 1.048-7.655-12.962 0-3.04-.04-5.608-.04-7.765.001-.992-.341 18.153-1.16 18.477-.82.325-2.381-.38-2.381-5.972 0-5.59-.39-12.574 1.624-18.547 1.031-3.059 4.765-3.682 4.94-3.731.667-.189 3.95 2.4 4.672 2.4 1.103 0 4.405-2.6 5.369-2.122l.135.07z"/>
        <path fill="#DDD" d="M19.265 50.129c.472-.48.71-1.232.938-2.532l.163-.96-.992-.1-.109 3.592zm-1.33 43.905l-.014.485.5-.485h-.485zm-4.171 0h-.48l.5.478-.02-.478zm-3.299-.059l-.01.489.5-.489h-.49zm-4.667 0h-.48l.5.48-.02-.48zm-.67-43.843c.032-.14.062-.232.08-.264-.06.105-.25.207-.465.107.113.052.242.105.385.157zm6.318 1.256l.444.06.066-.496-.5-.011-.01.447z"/>
        <path d="M11.942 21.812l-.678 29.144"/>
        <path fill="#77BBFB" d="M8.216 20.156l6.774.204-3.625 2.5z"/>
        <path fill="#EEE" d="M12.585 21.508c2.412 0 3.76-2.741 3.76-6.085s-1.348-6.086-3.76-6.086c-2.413 0-4.369 2.725-4.369 6.086 0 3.36 1.956 6.085 4.369 6.085z"/>
        <path fill="#D8D8D8" d="M15.554 19.629c.736-4.821.097-7.232-1.917-7.232-1.555 0-2.992 1.16-3.728.844-.694-.298-.724-2.097-.94-1.38-.295.983-.295 3.573 0 7.768-1.19.222-1.845-.076-1.967-.894-.18-1.203-.822-5.905 0-7.803 2.489-5.752 10.112-3.861 10.606 0 .118.924.111 6.981 0 7.803-.133.976-.817 1.274-2.054.894z"/>
        <path fill="#888" d="M6.562 94.667c-.019.863-.361 1.998-1.026 3.405-.999 2.11-3.093 2.389-3.093 4.114 0 1.724 2.163 1.631 4.462-.29 1.533-1.282 2.701-1.906 3.505-1.873v-5.49l-3.848.134zM17.7 94.534c-.156 1.014.098 2.225.763 3.631.999 2.11 3.304 2.296 3.304 4.02 0 1.725-2.163 1.632-4.462-.29-1.533-1.28-2.658-1.951-3.375-2.012v-5.35h3.77z"/>
        <path fill="#EEE" d="M31.853 5.212V2.556l1.503-1.243.396 2.373L36.127 1 39 4.736l-4.594 3.506-.245-.532c-.902-.386-1.468-.704-1.7-.954-.23-.25-.433-.765-.608-1.544z"/>
    </g>
</svg>
