<svg xmlns="http://www.w3.org/2000/svg" width="46" height="99" viewBox="0 0 46 99">
    <g fill="none" fill-rule="evenodd" stroke="#979797">
        <path fill="#DDE9FD" d="M19.818 44.76c8.33 0 7.541 1.22 7.541-12.766 0-.973.668-9.8.789-9.583.206.371 2.564-1.593 3.27-2.174.743-.612 14.661-5.918 13.954-7.635-.707-1.716-19.856 2.154-20.191 1.989-.963-.477-4.26 2.117-5.362 2.117-.72 0-4-2.584-4.666-2.395-.77.217-13.618-1.925-14.098-1.355-.495.588 7.867 5.869 7.606 6.914-.266 1.067 3.089.426 2.988 2.06-.151 2.46.473 6.057.473 10.062 0 13.986-.633 12.765 7.696 12.765z"/>
        <path fill="#DDD" d="M27.255 44.225c.472-.478.71-1.23.938-2.53l.163-.957-.992-.1-.109 3.587zM25.928 88.05l-.015.485.5-.485h-.485zm-4.166 0h-.479l.5.479-.02-.479zm-4.057-.058l-.02.48.5-.48h-.48zm-4.255 0h-.488l.5.489-.012-.489zm5.986-42.467l.501.02.02-.5-.5-.02-.02.5z"/>
        <path d="M19.942 15.956l-.677 29.093"/>
        <path fill="#77BBFB" d="M16.221 14.303l6.765.204-3.62 2.496z"/>
        <path fill="#EEE" d="M19.584 15.653c2.41 0 3.755-2.737 3.755-6.075s-1.345-6.075-3.755-6.075-4.363 2.72-4.363 6.075 1.953 6.075 4.363 6.075z"/>
        <path fill="#D8D8D8" d="M22.918 11.603c.49-3.364-.272-5.045-2.284-5.045-3.017 0-4.218-2.597-4.66-1.124-.296.983-.403 2.92-.321 5.813-.975-1.031-1.523-1.955-1.645-2.771-.18-1.2-.326-2.568.494-4.463 2.486-5.742 9.606-2.773 10.099 1.082.328 2.57-.233 4.739-1.683 6.508z"/>
        <path fill="#888" d="M13.57 88.683v3c0 2.311-.982 3.21-.982 4.931 0 1.722 5.882 2.441 5.882-.179 0-.89-.863-2.512-1.02-4.753-.05-.7-.05-1.7 0-2.999h-3.88zM25.9 89v2.999c0 2.312.982 3.21.982 4.932 0 1.721-5.882 2.44-5.882-.18 0-.89.862-2.512 1.02-4.752.05-.7.05-1.7 0-2.999h3.88z"/>
    </g>
</svg>
