<svg xmlns="http://www.w3.org/2000/svg" width="94" height="20" viewBox="0 0 94 20">
    <g fill="#F4F4F4" fill-rule="evenodd">
        <path d="M40.501 11.634c0 .966.12 1.904.346 2.792.02.063.035.127.056.19a11.132 11.132 0 0 0 2.157 4.167v.008c.296.338.599.67.916.973l9.724.034 5.731.022a11.22 11.22 0 0 0 3.533-8.186c0-.091 0-.176-.007-.268C62.815 5.29 57.845.402 51.733.402c-5.112 0-9.427 3.42-10.781 8.095-.296.994-.45 2.051-.45 3.137"/>
        <path d="M53.437 19.646l5.732.02 12.804.05a9.23 9.23 0 0 0-2.291-5.344 9.25 9.25 0 0 0-6.981-3.159h-.007a9.273 9.273 0 0 0-6.606 2.757 9.258 9.258 0 0 0-2.651 5.676M24.636 19.532l18.508.071a8.7 8.7 0 0 0-.14-.966v-.007c-.022-.099-.043-.198-.071-.296a9.235 9.235 0 0 0-1.982-3.878 1.904 1.904 0 0 0-.16-.184 9.318 9.318 0 0 0-5.156-2.898 9.504 9.504 0 0 0-1.741-.161 9.274 9.274 0 0 0-7.615 3.962 9.252 9.252 0 0 0-1.643 4.357"/>
        <path d="M34.315 13.826a5.315 5.315 0 1 0 10.63 0 5.315 5.315 0 0 0-10.63 0"/>
        <path d="M-.129 19.438l24.297.091 18.508.071.775.008 9.723.034 5.732.021 12.804.05 21.885.084c-7.58-.19-23.21-4.216-23.675-5.168-.05-.098-.219-.19-.501-.261-1.072-.296-3.73-.422-7.248-.444-1.904-.021-4.062 0-6.346.042-3.363.064-7.016.177-10.576.303a675.785 675.785 0 0 0-4.872.19c-1.989.08-3.885.163-5.612.24-5.232.24-8.905.445-8.905.445-.014.007-.029.021-.05.028-3.99 2.355-14.622 3.384-25.939 4.266"/>
    </g>
</svg>
