<svg xmlns="http://www.w3.org/2000/svg" width="94" height="20" viewBox="0 0 94 20">
    <g fill="#F4F4F4" fill-rule="evenodd">
        <path d="M53.093 11.634c0 .966-.119 1.904-.345 2.792-.021.063-.035.127-.056.19a11.132 11.132 0 0 1-2.158 4.167v.008c-.295.338-.598.67-.916.973l-9.723.034-5.732.022a11.22 11.22 0 0 1-3.526-8.454C30.78 5.29 35.75.402 41.862.402c5.112 0 9.427 3.42 10.78 8.095.297.994.451 2.051.451 3.137"/>
        <path d="M40.158 19.646l-5.732.02-12.804.05a9.23 9.23 0 0 1 2.291-5.344 9.25 9.25 0 0 1 6.98-3.159h.008a9.273 9.273 0 0 1 6.606 2.757 9.258 9.258 0 0 1 2.65 5.676M68.958 19.532l-18.508.071a8.7 8.7 0 0 1 .142-.966v-.007c.02-.099.041-.198.07-.296a9.235 9.235 0 0 1 1.981-3.878c.05-.064.106-.128.162-.184a9.318 9.318 0 0 1 5.155-2.898 9.504 9.504 0 0 1 1.741-.161 9.274 9.274 0 0 1 7.614 3.962 9.252 9.252 0 0 1 1.643 4.357"/>
        <path d="M59.28 13.826a5.315 5.315 0 1 1-10.63 0 5.315 5.315 0 0 1 10.63 0"/>
        <path d="M93.724 19.438l-24.297.091-18.508.071-.775.008-9.723.034-5.733.021-12.804.05L0 19.797c7.579-.19 23.21-4.216 23.675-5.168.05-.098.219-.19.5-.261 1.073-.296 3.73-.422 7.249-.444 1.904-.021 4.062 0 6.345.042 3.364.064 7.016.177 10.577.303a675.785 675.785 0 0 1 4.871.19 1018.599 1018.599 0 0 1 14.518.684c.014.008.028.022.05.029 3.99 2.355 14.622 3.384 25.939 4.266"/>
    </g>
</svg>
