<svg xmlns="http://www.w3.org/2000/svg" width="61" height="13" viewBox="0 0 61 13">
    <g fill="#F4F4F4" fill-rule="evenodd">
        <path d="M26.558 7.547c0 .627.078 1.235.225 1.81.013.042.022.083.036.124a7.221 7.221 0 0 0 1.4 2.704v.004c.191.22.388.435.594.632l6.308.022 3.717.014a7.278 7.278 0 0 0 2.292-5.31c0-.06 0-.114-.004-.174A7.284 7.284 0 1 0 26.85 5.511a7.128 7.128 0 0 0-.293 2.036"/>
        <path d="M34.95 12.744l3.718.014 8.306.032a5.987 5.987 0 0 0-1.486-3.467 6 6 0 0 0-4.529-2.05h-.004a6.015 6.015 0 0 0-4.285 1.79 6.006 6.006 0 0 0-1.72 3.681M16.267 12.67l12.006.046c-.018-.21-.05-.42-.091-.626v-.005c-.014-.064-.028-.128-.046-.192a5.99 5.99 0 0 0-1.39-2.635 6.044 6.044 0 0 0-3.344-1.88 6.165 6.165 0 0 0-1.13-.104 6.016 6.016 0 0 0-4.94 2.57 6.002 6.002 0 0 0-1.065 2.826"/>
        <path d="M22.546 8.969a3.448 3.448 0 1 0 6.895 0 3.448 3.448 0 0 0-6.895 0"/>
        <path d="M.202 12.61l15.761.058 12.006.046.503.005 6.307.023 3.719.014 8.306.032L61 12.842c-4.916-.123-15.056-2.735-15.358-3.352-.032-.064-.142-.124-.325-.17-.695-.191-2.42-.274-4.701-.288-1.236-.013-2.635 0-4.117.028-2.182.041-4.551.114-6.86.197-1.053.036-2.091.077-3.092.119a704.041 704.041 0 0 0-3.71.16c-3.393.155-5.776.288-5.776.288-.01.004-.019.014-.032.018-2.59 1.527-9.486 2.195-16.827 2.767"/>
    </g>
</svg>
