<svg xmlns="http://www.w3.org/2000/svg" width="40" height="104" viewBox="0 0 40 104">
    <g fill="none" fill-rule="evenodd" stroke="#979797">
        <path fill="#DDE9FD" d="M20.49 26.159c-.103-.18-.202-.46-.296-.839C9.714 13.987 4.943 7.808 5.88 6.784c.978-1.067 6.69 3.504 17.14 13.712.127-.05.26-.096.4-.135.667-.189 3.95 2.4 4.672 2.4 1.103 0 4.405-2.6 5.369-2.122.076.038 3.446.465 4.212 3.187 1.895 6.739 1.723 20.068 1.66 20.873-.48 6.162-2.338 5.093-3.02 2.585-.683-2.508-.69-19.177-.696-18.724-.034 2.55-.178 5.733-.178 9.619 0 14.01.992 12.682-7.347 12.682-8.34 0-7.655 1.048-7.655-12.962 0-5.187-.118-9.004.054-11.74z"/>
        <path fill="#DDD" d="M35.164 50.224c.54-.473.794-1.238 1.039-2.627l.163-.96-.991-.113-.21 3.7zm-2.49 43.81l-.027.471.499-.471h-.472zm-3.406 0h-.484l.5.484-.016-.484zm-3.1-.059l-.015.485.5-.485h-.485zm-3.994 0h-.476l.499.476-.023-.476zm-1.041-43.841c.03-.143.06-.237.08-.27-.062.107-.253.211-.47.11.115.054.245.107.39.16zm6.31 1.253l.447.06.066-.495-.5-.015-.013.45z"/>
        <path d="M27.942 21.812l-.678 29.144"/>
        <path fill="#77BBFB" d="M24.952 20.483l6.856.131-3.443 2.247z"/>
        <path fill="#EEE" d="M28.585 21.508c2.412 0 3.76-2.741 3.76-6.085s-1.348-6.086-3.76-6.086c-2.413 0-4.369 2.725-4.369 6.086 0 3.36 1.956 6.085 4.369 6.085z"/>
        <path fill="#D8D8D8" d="M31.554 19.629c.334-6.128-.237-8.56-1.713-7.295-2.212 1.897-4.067-.617-4.51.859a176.36 176.36 0 0 1-1.085 3.457c-1.377-2.547-1.792-4.453-1.244-5.718 2.489-5.752 10.112-3.861 10.606 0 .118.924.545 2.619.433 3.44-.132.976-.961 2.729-2.487 5.257z"/>
        <path fill="#888" d="M22.216 94.667c-.065.83-.43 1.947-1.095 3.354-.998 2.11-3.678 2.44-3.678 4.165 0 1.724 2.163 1.631 4.462-.29 1.533-1.282 2.93-1.916 4.19-1.902v-5.327h-3.88zM32.612 94.534c-.098 1.014.186 2.225.851 3.631.999 2.11 3.304 2.296 3.304 4.02 0 1.725-2.163 1.632-4.462-.29-1.533-1.28-2.582-1.94-3.146-1.975v-5.386h3.453z"/>
        <path fill="#EEE" d="M8.147 5.212V2.556L6.644 1.313l-.396 2.373L3.873 1 1 4.736l4.594 3.506.245-.532c.902-.386 1.468-.704 1.7-.954.23-.25.433-.765.608-1.544z"/>
    </g>
</svg>
