<svg xmlns="http://www.w3.org/2000/svg" width="15" height="14" viewBox="0 0 15 14">
    <g fill="#4286F5" fill-rule="evenodd">
        <path d="M13.403 8.617c.58-.798.422-1.901-.351-2.463-.774-.562-1.87-.37-2.45.427a1.804 1.804 0 0 0-.323 1.374l-.002-.001L.74 10.803c.143.268.35.372.624.371 3.62-.008 4.915.64 6.092 1.024 3.946 1.286 4.923-2.885 4.923-2.885l-.001-.001a1.81 1.81 0 0 0 1.025-.695"/>
        <path d="M13.3 6.633c.178.003.238.414.36.391.19-.035.358-.295.397-.39.065-.156-.621-.962-1.094-1.053-.472-.09-1.922-.084-1.922-.084.128.094 1.799 1.13 2.259 1.136z"/>
        <path d="M11.162 5.542s.153-.225.383-.42c.227-.194.566-.29 1.211-.2.644.09.92.215 1.049.308.128.093-.017 1.235-.017 1.235s-.872.07-1.668-.07c-.797-.14-1.05-.375-1.05-.375l.092-.478zM8.245 12.843l-.034-.475-.127-.006-.051.336s-.072 0-.28-.148c-.207-.148-.4-.027-.4-.027s1.209.624 1.16 1.034c0 0-.003.183.116-.03.032-.058.067-.136-.008-.245-.1-.146-.198-.314-.376-.439M12.931 7.967c-.14.217-.377.312-.53.214-.154-.099-.165-.353-.025-.57.14-.216.378-.312.53-.213.154.098.165.353.025.57"/>
        <path d="M12.78 7.96c-.073.113-.2.16-.284.106-.084-.054-.094-.19-.022-.303.074-.113.2-.16.284-.107.085.055.094.19.022.304M10.887 9.782s-.774 1.734-2.19 1.879c-1.414.145-4.186-1.985-4.186-1.985l4.78-1.428M13.813 6.242s-1.319-.032-1.544-.095c-.225-.064-.598-.14-.598-.14s-.109-.015-.156.057c-.075.117.065.184.065.184.204.084.435.139.689.17l1.52.047.024-.223z"/>
        <path d="M12.6 6.176l-.02.334-.423-.046.101-.348z"/>
        <path d="M12.312 6.397a.225.225 0 0 1-.315.046.225.225 0 0 1-.053-.314c.072-.099.213-.12.315-.045.025.018.046.04.06.066a.221.221 0 0 1-.007.247M13.632 7.667c.045-.11 1.6.547 1.2.47-.515-.097-1.51.03-1.75.505l.55-.975zM10.401 7.397L3.705 1.283s-.48 4.227 1.248 6.369c1.73 2.145 4.43 1.765 4.43 1.765l1.018-2.02z"/>
        <path d="M11.549 8.878L11.076.094s-1.661 1.76-2.04 3.283c-.95 3.83 1.13 5.479 1.13 5.479l1.383.022zM13.263 8.318l.988.494-.728-.53z"/>
    </g>
</svg>
