<svg xmlns="http://www.w3.org/2000/svg" width="182" height="83" viewBox="0 0 182 83">
    <path fill="#F6F6F6" fill-rule="evenodd" d="M17.008 82.198h153.15c-6.126-1.666-8.484-3.309-7.075-4.927 9.116-10.473 22.634-17.891 10.258-15.46a9408.532 9408.532 0 0 0-37.187 7.368c33.67-13.053 48.618-22.874 44.847-29.462-3.772-6.588-24.186.492-61.244 21.24 24.397-25.767 39.172-43.09 44.324-51.968 5.152-8.878-14.774 8.445-59.78 51.968 25.645-40.59 31.623-57.914 17.934-51.968-13.69 5.945-20.928 17.97-21.715 36.075 3.785-27.88.95-39.112-8.504-33.695-9.455 5.417-7.692 19.153 5.288 41.209C58.968 3.033 40.394-11.497 41.58 8.988c1.187 20.486 14.625 34.59 40.315 42.311C9.795 38.55-14.697 36.972 8.417 46.566 31.53 56.16 47.769 60.09 57.133 58.353 14.11 61.66-.723 65.745 12.632 70.609c13.354 4.864 14.813 8.727 4.376 11.589z"/>
</svg>
